<?xml version="1.0" encoding="UTF-8"?>
<svg width="876px" height="346px" viewBox="0 0 876 346" version="1.1" xmlns="http://www.w3.org/2000/svg" xmlns:xlink="http://www.w3.org/1999/xlink">
    <!-- Generator: Sketch 44.1 (41455) - http://www.bohemiancoding.com/sketch -->
    <title>Logo Industrial REMIX</title>
    <desc>Created with Sketch.</desc>
    <defs></defs> 
    <g id="Page-1" stroke="none" stroke-width="1" fill="none" fill-rule="evenodd">
        <g id="Logo-Industrial-REMIX">
            <rect id="Rectangle-Copy-4" fill-opacity="0.7" fill="#FFFFFF" x="102.971631" y="125.297872" width="28.3687943" height="107.801418"></rect>
            <rect id="Rectangle-Copy-4" fill-opacity="0.6" fill="#2A6720" x="137.014184" y="238.099291" width="28.3687943" height="73.7588652"></rect>
            <rect id="Rectangle-Copy-4" fill-opacity="0.7" fill="#2A6720" x="102.971631" y="238.099291" width="28.3687943" height="107.801418"></rect>
            <rect id="Rectangle-Copy-4" fill-opacity="0.5" fill="#2A6720" x="171.056738" y="238.099291" width="28.3687943" height="87.9432624"></rect>
            <rect id="Rectangle-Copy-11" fill-opacity="0.4" fill="#2A6720" x="205.099291" y="238.099291" width="28.3687943" height="81.0213658"></rect>
            <rect id="Rectangle-Copy-5" fill-opacity="0.6" fill="#FFFFFF" x="137.014184" y="104.155445" width="28.3687943" height="129.099291"></rect>
            <rect id="Rectangle-Copy-6" fill-opacity="0.5" fill="#FFFFFF" x="171.056738" y="120" width="28.3687943" height="113.099291"></rect>
            <rect id="Rectangle-Copy-7" fill-opacity="0.4" fill="#FFFFFF" x="205.099291" y="110" width="28.3687943" height="123.010002"></rect>
            <path d="M324.588652,21.8686372 L337.139561,21.8686372 L337.139561,92.3927902 L324.588652,92.3927902 L324.588652,21.8686372 Z M352.081119,44.5798051 L363.436703,44.5798051 L363.436703,52.2498048 L363.635924,52.2498048 C364.69844,49.8591436 366.541213,47.7507448 369.1643,45.9245453 C371.787387,44.0983458 374.891879,43.1852597 378.477871,43.1852597 C381.599012,43.1852597 384.271864,43.7331114 386.496507,44.8288311 C388.72115,45.9245508 390.547322,47.3688869 391.975078,49.1618828 C393.402834,50.9548788 394.448733,53.0134728 395.112806,55.3377268 C395.776878,57.6619807 396.108909,60.0526061 396.108909,62.5096745 L396.108909,92.3927902 L384.155663,92.3927902 L384.155663,65.8964276 C384.155663,64.5018753 384.056054,63.0409376 383.856832,61.5135707 C383.65761,59.9862038 383.225969,58.6082739 382.561897,57.3797397 C381.897824,56.1512054 380.984738,55.13851 379.822611,54.3416229 C378.660484,53.5447358 377.116539,53.1462983 375.190728,53.1462983 C373.264918,53.1462983 371.604761,53.5281343 370.210209,54.2918177 C368.815657,55.0555012 367.670149,56.0349935 366.773651,57.2303241 C365.877153,58.4256547 365.196489,59.8035846 364.731638,61.3641551 C364.266787,62.9247256 364.034365,64.5018743 364.034365,66.0956484 L364.034365,92.3927902 L352.081119,92.3927902 L352.081119,44.5798051 Z M458.664232,92.3927902 L447.308648,92.3927902 L447.308648,85.2208425 L447.109427,85.2208425 C445.449245,88.0099472 443.141628,90.1349475 440.186505,91.5959071 C437.231382,93.0568668 434.060483,93.7873356 430.673713,93.7873356 C427.021314,93.7873356 423.750806,93.1066715 420.86209,91.7453227 C417.973375,90.383974 415.516343,88.5578018 413.490922,86.2667515 C411.4655,83.9757012 409.904953,81.2862477 408.809234,78.1983103 C407.713514,75.1103729 407.165662,71.8066615 407.165662,68.2870769 C407.165662,64.7674923 407.730115,61.4803825 408.859039,58.4256487 C409.987962,55.3709149 411.581712,52.7146646 413.640337,50.4568179 C415.698962,48.1989712 418.155994,46.4226037 421.011506,45.1276622 C423.867018,43.8327207 426.988112,43.1852597 430.374882,43.1852597 C432.566321,43.1852597 434.525306,43.4342832 436.251895,43.9323376 C437.978483,44.430392 439.489226,45.0446499 440.784167,45.7751297 C442.079109,46.5056096 443.191414,47.3024847 444.121115,48.165779 C445.050817,49.0290733 445.814489,49.8591516 446.412154,50.6560386 L446.710985,50.6560386 L446.710985,17.0873387 L458.664232,17.0873387 L458.664232,92.3927902 Z M419.318129,68.2870769 C419.318129,70.1464801 419.600356,72.0058553 420.164818,73.8652585 C420.729279,75.7246617 421.575959,77.3848181 422.704882,78.8457778 C423.833806,80.3067374 425.26154,81.5020501 426.988129,82.4317517 C428.714718,83.3614532 430.740108,83.8262971 433.064362,83.8262971 C435.255802,83.8262971 437.214787,83.3780548 438.941375,82.4815568 C440.667964,81.5850589 442.145503,80.4063478 443.374037,78.9453882 C444.602572,77.4844285 445.532259,75.8408736 446.163128,74.0146741 C446.793997,72.1884745 447.109427,70.3457008 447.109427,68.4862977 C447.109427,66.6268945 446.793997,64.7675192 446.163128,62.9081161 C445.532259,61.0487129 444.602572,59.3885564 443.374037,57.9275968 C442.145503,56.4666372 440.667964,55.2713245 438.941375,54.3416229 C437.214787,53.4119213 435.255802,52.9470775 433.064362,52.9470775 C430.740108,52.9470775 428.714718,53.3953198 426.988129,54.2918177 C425.26154,55.1883157 423.833806,56.3670268 422.704882,57.8279864 C421.575959,59.288946 420.729279,60.932501 420.164818,62.7587005 C419.600356,64.5849 419.318129,66.4276737 419.318129,68.2870769 Z M516.836697,92.3927902 L505.481113,92.3927902 L505.481113,84.7227905 L505.281892,84.7227905 C504.219376,87.1134517 502.376602,89.2218505 499.753516,91.04805 C497.130429,92.8742495 494.025936,93.7873356 490.439945,93.7873356 C487.318804,93.7873356 484.645952,93.239484 482.421309,92.1437643 C480.196665,91.0480445 478.370493,89.6037084 476.942737,87.8107125 C475.514981,86.0177166 474.469083,83.9591225 473.80501,81.6348686 C473.140938,79.3106146 472.808906,76.9199893 472.808906,74.4629208 L472.808906,44.5798051 L484.762153,44.5798051 L484.762153,71.0761677 C484.762153,72.4707201 484.861762,73.9316578 485.060984,75.4590247 C485.260206,76.9863915 485.691846,78.3643214 486.355919,79.5928557 C487.019991,80.8213899 487.933077,81.8340854 489.095204,82.6309724 C490.257331,83.4278595 491.801277,83.8262971 493.727087,83.8262971 C495.58649,83.8262971 497.230045,83.4444611 498.657801,82.6807776 C500.085557,81.9170942 501.247667,80.9376018 502.144165,79.7422712 C503.040663,78.5469406 503.721327,77.1690107 504.186178,75.6084402 C504.651029,74.0478697 504.883451,72.4707211 504.883451,70.8769469 L504.883451,44.5798051 L516.836697,44.5798051 L516.836697,92.3927902 Z M557.378124,57.3299345 C556.315608,55.9353821 554.85467,54.7234679 552.995267,53.6941554 C551.135864,52.6648429 549.110473,52.1501944 546.919033,52.1501944 C544.993223,52.1501944 543.233457,52.548632 541.639683,53.345519 C540.045909,54.1424061 539.249034,55.4705313 539.249034,57.3299345 C539.249034,59.1893376 540.128916,60.5008613 541.888709,61.2645447 C543.648501,62.0282281 546.221744,62.8085017 549.608514,63.6053888 C551.40151,64.0038323 553.21108,64.5350824 555.03728,65.1991549 C556.863479,65.8632275 558.523636,66.7431104 560.017799,67.8388302 C561.511962,68.9345499 562.723876,70.2958782 563.653578,71.922856 C564.58328,73.5498337 565.048123,75.52542 565.048123,77.8496739 C565.048123,80.7715932 564.500272,83.2452263 563.404552,85.2706476 C562.308832,87.2960689 560.847895,88.9396239 559.021695,90.2013617 C557.195496,91.4630996 555.070495,92.3761857 552.64663,92.9406473 C550.222766,93.505109 547.715929,93.7873356 545.126046,93.7873356 C541.40724,93.7873356 537.788099,93.1066715 534.268514,91.7453227 C530.74893,90.383974 527.827054,88.4415909 525.5028,85.9181152 L533.372021,78.5469466 C534.700166,80.2735353 536.426729,81.7012698 538.551761,82.8301932 C540.676793,83.9591165 543.034215,84.5235698 545.624098,84.5235698 C546.487393,84.5235698 547.367275,84.4239604 548.263773,84.2247386 C549.160271,84.0255168 549.99035,83.7100871 550.754033,83.2784399 C551.517717,82.8467928 552.131974,82.265738 552.596825,81.5352582 C553.061676,80.8047784 553.294098,79.9082939 553.294098,78.8457778 C553.294098,76.8535601 552.381012,75.4258255 550.554812,74.5625312 C548.728613,73.6992369 545.989355,72.8359555 542.336956,71.9726612 C540.54396,71.5742176 538.800795,71.0595691 537.10741,70.4287002 C535.414025,69.7978313 533.903283,68.967753 532.575138,67.9384405 C531.246993,66.9091281 530.184492,65.6308076 529.387605,64.1034407 C528.590718,62.5760738 528.192281,60.6834954 528.192281,58.4256487 C528.192281,55.7693585 528.740132,53.4783425 529.835852,51.5525321 C530.931572,49.6267217 532.375908,48.049573 534.168904,46.8210388 C535.9619,45.5925046 537.987291,44.6794185 540.245137,44.0817532 C542.502984,43.4840879 544.827203,43.1852597 547.217864,43.1852597 C550.671042,43.1852597 554.041159,43.782916 557.328319,44.9782467 C560.615478,46.1735773 563.221923,47.9997494 565.147734,50.4568179 L557.378124,57.3299345 Z M568.534487,54.1424021 L568.534487,44.5798051 L576.901759,44.5798051 L576.901759,30.7339615 L588.655785,30.7339615 L588.655785,44.5798051 L600.609031,44.5798051 L600.609031,54.1424021 L588.655785,54.1424021 L588.655785,76.3555181 C588.655785,78.4805503 589.037621,80.2403162 589.801304,81.6348686 C590.564988,83.0294209 592.274949,83.7266867 594.931239,83.7266867 C595.728126,83.7266867 596.591408,83.6436788 597.521109,83.4776607 C598.450811,83.3116426 599.280889,83.0626191 600.011369,82.7305828 L600.40981,92.0939591 C599.347294,92.4924026 598.085575,92.8078323 596.624616,93.0402577 C595.163656,93.2726831 593.769125,93.3888941 592.440979,93.3888941 C589.253431,93.3888941 586.663587,92.9406518 584.671369,92.0441539 C582.679152,91.1476559 581.102003,89.9191401 579.939876,88.3585696 C578.777749,86.7979991 577.980874,85.0050301 577.549227,82.9796088 C577.11758,80.9541875 576.901759,78.7793825 576.901759,76.4551285 L576.901759,54.1424021 L568.534487,54.1424021 Z M609.275135,44.5798051 L620.730329,44.5798051 L620.730329,52.548636 L620.92955,52.548636 C622.257695,49.7595312 624.11707,47.5017184 626.507731,45.7751297 C628.898393,44.0485411 631.687455,43.1852597 634.875004,43.1852597 C635.339855,43.1852597 635.837902,43.2018613 636.36916,43.2350649 C636.900418,43.2682685 637.365261,43.3512764 637.763705,43.4840909 L637.763705,54.4412333 C636.966818,54.2420115 636.286154,54.109199 635.721692,54.0427917 C635.15723,53.9763845 634.609379,53.9431814 634.078121,53.9431814 C631.355423,53.9431814 629.164017,54.4412283 627.503835,55.4373371 C625.843654,56.433446 624.548732,57.6287587 623.61903,59.023311 C622.689329,60.4178634 622.058469,61.845598 621.726433,63.3065576 C621.394397,64.7675172 621.228381,65.9296268 621.228381,66.7929211 L621.228381,92.3927902 L609.275135,92.3927902 L609.275135,44.5798051 Z M645.732536,44.5798051 L657.685782,44.5798051 L657.685782,92.3927902 L645.732536,92.3927902 L645.732536,44.5798051 Z M644.039159,28.3433122 C644.039159,26.4175018 644.753027,24.7407438 646.180783,23.3129878 C647.608539,21.8852318 649.418109,21.1713645 651.609549,21.1713645 C653.800988,21.1713645 655.643762,21.8520286 657.137925,23.2133774 C658.632088,24.5747261 659.379159,26.2846873 659.379159,28.3433122 C659.379159,30.4019372 658.632088,32.1118984 657.137925,33.4732471 C655.643762,34.8345959 653.800988,35.51526 651.609549,35.51526 C649.418109,35.51526 647.608539,34.8013927 646.180783,33.3736367 C644.753027,31.9458807 644.039159,30.2691227 644.039159,28.3433122 Z M701.912793,86.3165567 L701.613962,86.3165567 C700.418632,88.4415889 698.49285,90.1847532 695.83656,91.5461019 C693.18027,92.9074507 690.158785,93.5881148 686.772015,93.5881148 C684.846204,93.5881148 682.837415,93.3390914 680.745586,92.841037 C678.653758,92.3429825 676.727976,91.5129043 674.968184,90.3507773 C673.208392,89.1886503 671.747454,87.6613064 670.585327,85.7686996 C669.4232,83.8760928 668.842145,81.5352721 668.842145,78.7461674 C668.842145,75.1601756 669.854841,72.3047064 671.880262,70.1796742 C673.905683,68.054642 676.512129,66.4276887 679.699677,65.2987653 C682.887226,64.169842 686.423359,63.4227716 690.308183,63.0575316 C694.193008,62.6922917 697.994766,62.5096745 701.713573,62.5096745 L701.713573,61.3143499 C701.713573,58.3260234 700.634471,56.1180153 698.476235,54.6902593 C696.317999,53.2625033 693.744757,52.548636 690.75643,52.548636 C688.232954,52.548636 685.809126,53.079886 683.484872,54.1424021 C681.160618,55.2049182 679.234836,56.4998403 677.70747,58.0272072 L671.531626,50.755649 C674.254323,48.2321733 677.392019,46.3395949 680.944807,45.077857 C684.497595,43.8161192 688.100135,43.1852597 691.752534,43.1852597 C696.002598,43.1852597 699.505529,43.782916 702.26143,44.9782467 C705.017331,46.1735773 707.192136,47.7341244 708.78591,49.6599348 C710.379684,51.5857452 711.491989,53.7439486 712.122858,56.1346098 C712.753727,58.5252711 713.069157,60.9158964 713.069157,63.3065576 L713.069157,92.3927902 L701.912793,92.3927902 L701.912793,86.3165567 Z M701.713573,70.5781158 L699.024092,70.5781158 C697.098282,70.5781158 695.072891,70.6611236 692.947859,70.8271417 C690.822826,70.9931599 688.863842,71.3583943 687.070846,71.922856 C685.27785,72.4873176 683.783709,73.2841928 682.588378,74.3135052 C681.393048,75.3428177 680.795392,76.7539507 680.795392,78.5469466 C680.795392,79.67587 681.044415,80.6221592 681.542469,81.3858426 C682.040524,82.149526 682.687985,82.7637839 683.484872,83.2286347 C684.281759,83.6934855 685.178244,84.0255168 686.174352,84.2247386 C687.170461,84.4239604 688.166555,84.5235698 689.162664,84.5235698 C693.279914,84.5235698 696.401008,83.4278665 698.52604,81.236427 C700.651072,79.0449876 701.713573,76.0567059 701.713573,72.2714923 L701.713573,70.5781158 Z M727.213831,17.0873387 L739.167078,17.0873387 L739.167078,92.3927902 L727.213831,92.3927902 L727.213831,17.0873387 Z" id="Industrial" fill="#FFFFFF"></path>
            <path d="M392.673418,233.010002 L366.631003,185.180467 L356.758714,185.180467 L356.758714,233.010002 L328.163121,233.010002 L328.163121,112.5 L374.120325,112.5 C379.907557,112.5 385.552861,113.095736 391.056406,114.287225 C396.55995,115.478714 401.496045,117.492867 405.864838,120.329746 C410.233631,123.166625 413.72294,126.911248 416.332868,131.563729 C418.942796,136.21621 420.247741,142.003356 420.247741,148.92534 C420.247741,157.09555 418.035009,163.960693 413.609478,169.520976 C409.183947,175.081258 403.056381,179.052828 395.226596,181.435806 L426.715792,233.010002 L392.673418,233.010002 Z M391.481935,149.435975 C391.481935,146.599097 390.8862,144.301259 389.694711,142.542395 C388.503222,140.78353 386.97133,139.421849 385.09899,138.45731 C383.22665,137.492771 381.127392,136.840299 378.801151,136.499873 C376.474911,136.159448 374.23381,135.989238 372.077782,135.989238 L356.588502,135.989238 L356.588502,164.074196 L370.375664,164.074196 C372.758642,164.074196 375.198321,163.875617 377.694774,163.478454 C380.191227,163.081291 382.460696,162.372082 384.503249,161.350806 C386.545801,160.32953 388.219535,158.854375 389.524499,156.925297 C390.829463,154.99622 391.481935,152.499804 391.481935,149.435975 Z M441.013589,233.010002 L441.013589,112.5 L522.034438,112.5 L522.034438,137.180721 L469.098547,137.180721 L469.098547,159.818899 L519.140836,159.818899 L519.140836,183.137925 L469.098547,183.137925 L469.098547,208.159069 L525.098251,208.159069 L525.098251,233.010002 L441.013589,233.010002 Z M653.608211,233.010002 L654.289059,147.733857 L653.778423,147.733857 L622.459439,233.010002 L602.034015,233.010002 L571.566091,147.733857 L571.055455,147.733857 L571.736303,233.010002 L544.332192,233.010002 L544.332192,112.5 L585.693676,112.5 L613.097787,189.776188 L613.778634,189.776188 L639.991262,112.5 L682.033593,112.5 L682.033593,233.010002 L653.608211,233.010002 Z M706.884526,233.010002 L706.884526,112.5 L736.160967,112.5 L736.160967,233.010002 L706.884526,233.010002 Z M833.692367,233.010002 L807.309527,190.457035 L781.947959,233.010002 L747.224738,233.010002 L789.437281,169.350764 L750.628976,112.5 L785.69262,112.5 L808.160587,149.946611 L830.288129,112.5 L864.160291,112.5 L826.032833,169.350764 L869.607071,233.010002 L833.692367,233.010002 Z" id="REMIX" fill="#FFFFFF"></path>
            <path d="M321.751773,279.474576 L321.751773,269.911702 L330.119288,269.911702 L330.119288,256.065458 L341.873653,256.065458 L341.873653,269.911702 L353.827246,269.911702 L353.827246,279.474576 L341.873653,279.474576 L341.873653,301.688335 C341.873653,303.813428 342.2555,305.573245 343.019206,306.967838 C343.782911,308.362431 345.492922,309.059716 348.149289,309.059716 C348.946199,309.059716 349.809506,308.976706 350.739234,308.810683 C351.668963,308.64466 352.499065,308.39563 353.229566,308.063584 L353.628019,317.427231 C352.565472,317.825686 351.303717,318.141125 349.842715,318.373557 C348.381713,318.605989 346.987141,318.722204 345.658958,318.722204 C342.471317,318.722204 339.881398,318.273948 337.889123,317.377424 C335.896847,316.4809 334.319653,315.252349 333.157492,313.691733 C331.995332,312.131118 331.198434,310.338097 330.766774,308.312617 C330.335114,306.287137 330.119288,304.112269 330.119288,301.787948 L330.119288,279.474576 L321.751773,279.474576 Z M359.704428,293.61966 C359.704428,289.834337 360.385112,286.397713 361.7465,283.309687 C363.107889,280.22166 364.950716,277.581935 367.275037,275.390432 C369.599358,273.198929 372.355298,271.50552 375.542938,270.310155 C378.730579,269.11479 382.117396,268.517116 385.703492,268.517116 C389.289587,268.517116 392.676404,269.11479 395.864045,270.310155 C399.051685,271.50552 401.807625,273.198929 404.131946,275.390432 C406.456267,277.581935 408.299095,280.22166 409.660483,283.309687 C411.021871,286.397713 411.702555,289.834337 411.702555,293.61966 C411.702555,297.404983 411.021871,300.858208 409.660483,303.97944 C408.299095,307.100671 406.456267,309.7736 404.131946,311.998308 C401.807625,314.223015 399.051685,315.96623 395.864045,317.228004 C392.676404,318.489779 389.289587,319.120657 385.703492,319.120657 C382.117396,319.120657 378.730579,318.489779 375.542938,317.228004 C372.355298,315.96623 369.599358,314.223015 367.275037,311.998308 C364.950716,309.7736 363.107889,307.100671 361.7465,303.97944 C360.385112,300.858208 359.704428,297.404983 359.704428,293.61966 Z M371.857247,293.61966 C371.857247,295.479117 372.139482,297.338546 372.70396,299.198003 C373.268438,301.05746 374.115142,302.717664 375.244098,304.178666 C376.373054,305.639668 377.80083,306.835015 379.527469,307.764744 C381.254108,308.694472 383.312761,309.15933 385.703492,309.15933 C388.094222,309.15933 390.152876,308.694472 391.879514,307.764744 C393.606153,306.835015 395.033929,305.639668 396.162885,304.178666 C397.291841,302.717664 398.138545,301.05746 398.703023,299.198003 C399.267501,297.338546 399.549736,295.479117 399.549736,293.61966 C399.549736,291.760203 399.267501,289.917376 398.703023,288.091123 C398.138545,286.264871 397.291841,284.621269 396.162885,283.160267 C395.033929,281.699265 393.606153,280.520519 391.879514,279.623996 C390.152876,278.727472 388.094222,278.279216 385.703492,278.279216 C383.312761,278.279216 381.254108,278.727472 379.527469,279.623996 C377.80083,280.520519 376.373054,281.699265 375.244098,283.160267 C374.115142,284.621269 373.268438,286.264871 372.70396,288.091123 C372.139482,289.917376 371.857247,291.760203 371.857247,293.61966 Z M474.359301,282.6622 C473.296754,281.267608 471.835774,280.055658 469.976317,279.026316 C468.11686,277.996974 466.09141,277.48231 463.899907,277.48231 C461.974041,277.48231 460.214224,277.880759 458.620404,278.67767 C457.026584,279.47458 456.229686,280.802743 456.229686,282.6622 C456.229686,284.521657 457.109594,285.833219 458.869437,286.596924 C460.629281,287.36063 463.202598,288.140926 466.589466,288.937836 C468.382514,289.336291 470.192136,289.867557 472.018389,290.531648 C473.844641,291.19574 475.504846,292.075649 476.999052,293.1714 C478.493259,294.267152 479.705208,295.628519 480.634937,297.255544 C481.564665,298.882569 482.029522,300.858212 482.029522,303.182534 C482.029522,306.104537 481.481655,308.578242 480.385903,310.603722 C479.290152,312.629202 477.829172,314.272805 476.00292,315.534579 C474.176667,316.796353 472.051605,317.709466 469.62767,318.273944 C467.203735,318.838422 464.696827,319.120657 462.106869,319.120657 C458.387955,319.120657 454.768709,318.439973 451.249022,317.078585 C447.729336,315.717196 444.807376,313.774757 442.483055,311.251208 L450.352503,303.879826 C451.680686,305.606465 453.407299,307.034241 455.532393,308.163197 C457.657487,309.292153 460.014977,309.856623 462.604935,309.856623 C463.468254,309.856623 464.348163,309.75701 465.244687,309.557783 C466.14121,309.358555 466.971313,309.043116 467.735018,308.611457 C468.498724,308.179797 469.113,307.598726 469.577864,306.868225 C470.042728,306.137724 470.275157,305.241213 470.275157,304.178666 C470.275157,302.186391 469.362044,300.758615 467.535792,299.895296 C465.709539,299.031976 462.970202,298.16867 459.317697,297.305351 C457.524649,296.906896 455.781435,296.392232 454.088,295.761345 C452.394566,295.130458 450.88378,294.300356 449.555597,293.271013 C448.227413,292.241671 447.164882,290.963314 446.367972,289.435903 C445.571062,287.908491 445.172613,286.015858 445.172613,283.757946 C445.172613,281.101579 445.72048,278.810497 446.816232,276.884631 C447.911983,274.958765 449.356361,273.38157 451.149409,272.153 C452.942457,270.924431 454.967906,270.011318 457.225818,269.413636 C459.483731,268.815953 461.808017,268.517116 464.198747,268.517116 C467.652025,268.517116 471.02224,269.11479 474.309494,270.310155 C477.596748,271.50552 480.203269,273.331745 482.129136,275.788885 L474.359301,282.6622 Z M522.074056,311.649661 L521.775217,311.649661 C520.579851,313.774755 518.654014,315.51797 515.997647,316.879358 C513.34128,318.240746 510.319708,318.92143 506.93284,318.92143 C505.006973,318.92143 502.998126,318.672399 500.906237,318.174331 C498.814348,317.676262 496.88851,316.846159 495.128667,315.683999 C493.368824,314.521838 491.907844,312.99445 490.745683,311.101788 C489.583523,309.209127 489.002451,306.868238 489.002451,304.079053 C489.002451,300.492957 490.015176,297.637406 492.040656,295.512312 C494.066136,293.387218 496.672657,291.760218 499.860297,290.631262 C503.047938,289.502306 506.584174,288.755214 510.469111,288.389963 C514.354047,288.024713 518.155916,287.84209 521.87483,287.84209 L521.87483,286.646731 C521.87483,283.658318 520.795697,281.450246 518.637399,280.022449 C516.4791,278.594651 513.905783,277.880763 510.91737,277.880763 C508.393822,277.880763 505.969923,278.412029 503.645602,279.474576 C501.32128,280.537123 499.395443,281.832082 497.868032,283.359493 L491.692009,276.087725 C494.414786,273.564176 497.552572,271.671543 501.105463,270.409768 C504.658354,269.147994 508.260998,268.517116 511.913503,268.517116 C516.16369,268.517116 519.666722,269.11479 522.422703,270.310155 C525.178684,271.50552 527.353552,273.066112 528.947372,274.991979 C530.541192,276.917845 531.653529,279.076111 532.284416,281.466841 C532.915304,283.857571 533.230742,286.248266 533.230742,288.638996 L533.230742,317.726071 L522.074056,317.726071 L522.074056,311.649661 Z M521.87483,295.910765 L519.185272,295.910765 C517.259405,295.910765 515.233956,295.993775 513.108862,296.159798 C510.983768,296.325821 509.024727,296.691066 507.231679,297.255544 C505.438632,297.820022 503.944447,298.61692 502.749082,299.646263 C501.553717,300.675605 500.956043,302.086779 500.956043,303.879826 C500.956043,305.008783 501.205074,305.955099 501.703143,306.718805 C502.201212,307.48251 502.848692,308.096786 503.645602,308.56165 C504.442512,309.026514 505.339022,309.358555 506.33516,309.557783 C507.331298,309.75701 508.32742,309.856623 509.323558,309.856623 C513.440927,309.856623 516.562112,308.760888 518.687205,306.569385 C520.812299,304.377882 521.87483,301.389514 521.87483,297.604191 L521.87483,295.910765 Z M540.004445,269.911702 L553.053783,269.911702 L565.605055,304.776346 L565.804281,304.776346 L578.455166,269.911702 L591.106052,269.911702 L572.079917,317.726071 L559.329419,317.726071 L540.004445,269.911702 Z M631.947492,289.037449 C631.947492,287.510038 631.731665,286.049058 631.300005,284.654466 C630.868346,283.259873 630.187662,282.031322 629.257933,280.968775 C628.328205,279.906228 627.14946,279.059524 625.721662,278.428636 C624.293865,277.797749 622.617059,277.48231 620.691192,277.48231 C617.105097,277.48231 614.066922,278.561443 611.576578,280.719742 C609.086234,282.87804 607.708264,285.650581 607.442628,289.037449 L631.947492,289.037449 Z M643.901084,294.416566 L643.901084,296.010378 C643.901084,296.541652 643.86788,297.072917 643.801471,297.604191 L607.442628,297.604191 C607.575446,299.330829 608.023701,300.908024 608.787407,302.335821 C609.551112,303.763618 610.563837,304.99217 611.825611,306.021512 C613.087386,307.050854 614.515162,307.864354 616.108982,308.462037 C617.702802,309.059719 619.363007,309.358556 621.089645,309.358556 C624.078058,309.358556 626.601569,308.810689 628.660254,307.714937 C630.718938,306.619186 632.412347,305.1084 633.740531,303.182534 L641.709592,309.557783 C636.99454,315.933064 630.154498,319.120657 621.189259,319.120657 C617.470345,319.120657 614.050323,318.539585 610.929092,317.377424 C607.807861,316.215264 605.101727,314.571661 602.810611,312.446568 C600.519494,310.321474 598.726473,307.714953 597.431494,304.626926 C596.136515,301.538899 595.489035,298.035868 595.489035,294.117726 C595.489035,290.265994 596.136515,286.762962 597.431494,283.608526 C598.726473,280.45409 600.502892,277.764559 602.760804,275.539852 C605.018716,273.315144 607.691645,271.588531 610.779672,270.359962 C613.867699,269.131392 617.20471,268.517116 620.790806,268.517116 C624.111265,268.517116 627.182643,269.064984 630.005033,270.160735 C632.827423,271.256486 635.267924,272.883487 637.326608,275.041785 C639.385293,277.200083 640.995691,279.889615 642.157852,283.11046 C643.320012,286.331305 643.901084,290.099969 643.901084,294.416566 Z M680.558767,242.41844 L692.512359,242.41844 L692.512359,317.726071 L680.558767,317.726071 L680.558767,242.41844 Z M707.255123,269.911702 L719.208715,269.911702 L719.208715,317.726071 L707.255123,317.726071 L707.255123,269.911702 Z M705.561697,253.674739 C705.561697,251.748873 706.275585,250.072066 707.703383,248.644269 C709.13118,247.216472 710.940803,246.502584 713.132306,246.502584 C715.323809,246.502584 717.166636,247.183268 718.660842,248.544656 C720.155049,249.906044 720.902141,251.616055 720.902141,253.674739 C720.902141,255.733424 720.155049,257.443434 718.660842,258.804822 C717.166636,260.166211 715.323809,260.846894 713.132306,260.846894 C710.940803,260.846894 709.13118,260.133006 707.703383,258.705209 C706.275585,257.277412 705.561697,255.600605 705.561697,253.674739 Z M726.580097,269.911702 L739.629435,269.911702 L752.180707,304.776346 L752.379934,304.776346 L765.030819,269.911702 L777.681704,269.911702 L758.655569,317.726071 L745.905071,317.726071 L726.580097,269.911702 Z M818.523144,289.037449 C818.523144,287.510038 818.307317,286.049058 817.875658,284.654466 C817.443998,283.259873 816.763314,282.031322 815.833586,280.968775 C814.903857,279.906228 813.725112,279.059524 812.297315,278.428636 C810.869517,277.797749 809.192711,277.48231 807.266845,277.48231 C803.680749,277.48231 800.642575,278.561443 798.152231,280.719742 C795.661886,282.87804 794.283917,285.650581 794.01828,289.037449 L818.523144,289.037449 Z M830.476736,294.416566 L830.476736,296.010378 C830.476736,296.541652 830.443532,297.072917 830.377123,297.604191 L794.01828,297.604191 C794.151098,299.330829 794.599353,300.908024 795.363059,302.335821 C796.126765,303.763618 797.139489,304.99217 798.401264,306.021512 C799.663038,307.050854 801.090814,307.864354 802.684634,308.462037 C804.278455,309.059719 805.938659,309.358556 807.665298,309.358556 C810.653711,309.358556 813.177222,308.810689 815.235906,307.714937 C817.294591,306.619186 818.987999,305.1084 820.316183,303.182534 L828.285244,309.557783 C823.570193,315.933064 816.73015,319.120657 807.764911,319.120657 C804.045997,319.120657 800.625976,318.539585 797.504744,317.377424 C794.383513,316.215264 791.67738,314.571661 789.386263,312.446568 C787.095146,310.321474 785.302125,307.714953 784.007146,304.626926 C782.712167,301.538899 782.064688,298.035868 782.064688,294.117726 C782.064688,290.265994 782.712167,286.762962 784.007146,283.608526 C785.302125,280.45409 787.078544,277.764559 789.336456,275.539852 C791.594368,273.315144 794.267298,271.588531 797.355324,270.359962 C800.443351,269.131392 803.780362,268.517116 807.366458,268.517116 C810.686917,268.517116 813.758295,269.064984 816.580685,270.160735 C819.403075,271.256486 821.843576,272.883487 823.90226,275.041785 C825.960945,277.200083 827.571343,279.889615 828.733504,283.11046 C829.895665,286.331305 830.476736,290.099969 830.476736,294.416566 Z M868.230165,282.6622 C867.167618,281.267608 865.706638,280.055658 863.847181,279.026316 C861.987724,277.996974 859.962275,277.48231 857.770772,277.48231 C855.844906,277.48231 854.085089,277.880759 852.491269,278.67767 C850.897448,279.47458 850.10055,280.802743 850.10055,282.6622 C850.10055,284.521657 850.980459,285.833219 852.740302,286.596924 C854.500145,287.36063 857.073462,288.140926 860.46033,288.937836 C862.253378,289.336291 864.063001,289.867557 865.889253,290.531648 C867.715506,291.19574 869.37571,292.075649 870.869917,293.1714 C872.364123,294.267152 873.576072,295.628519 874.505801,297.255544 C875.435529,298.882569 875.900387,300.858212 875.900387,303.182534 C875.900387,306.104537 875.352519,308.578242 874.256768,310.603722 C873.161016,312.629202 871.700036,314.272805 869.873784,315.534579 C868.047532,316.796353 865.92247,317.709466 863.498535,318.273944 C861.0746,318.838422 858.567691,319.120657 855.977733,319.120657 C852.258819,319.120657 848.639573,318.439973 845.119887,317.078585 C841.6002,315.717196 838.67824,313.774757 836.353919,311.251208 L844.223367,303.879826 C845.551551,305.606465 847.278164,307.034241 849.403257,308.163197 C851.528351,309.292153 853.885841,309.856623 856.475799,309.856623 C857.339119,309.856623 858.219027,309.75701 859.115551,309.557783 C860.012075,309.358555 860.842177,309.043116 861.605883,308.611457 C862.369588,308.179797 862.983864,307.598726 863.448728,306.868225 C863.913592,306.137724 864.146021,305.241213 864.146021,304.178666 C864.146021,302.186391 863.232909,300.758615 861.406656,299.895296 C859.580404,299.031976 856.841066,298.16867 853.188561,297.305351 C851.395514,296.906896 849.652299,296.392232 847.958865,295.761345 C846.265431,295.130458 844.754645,294.300356 843.426461,293.271013 C842.098278,292.241671 841.035747,290.963314 840.238837,289.435903 C839.441926,287.908491 839.043477,286.015858 839.043477,283.757946 C839.043477,281.101579 839.591345,278.810497 840.687096,276.884631 C841.782848,274.958765 843.227226,273.38157 845.020273,272.153 C846.813321,270.924431 848.838771,270.011318 851.096683,269.413636 C853.354595,268.815953 855.678881,268.517116 858.069612,268.517116 C861.522889,268.517116 864.893104,269.11479 868.180358,270.310155 C871.467613,271.50552 874.074134,273.331745 876,275.788885 L868.230165,282.6622 Z" id="to-save-lives" fill-opacity="0.9" fill="#2A6720"></path>
            <rect id="Rectangle" fill="#FFFFFF" x="0.843971631" y="0.475177305" width="28.3687943" height="232.624113"></rect>
            <rect id="Rectangle" fill-opacity="0.9" fill="#FFFFFF" x="34.8865248" y="113.950355" width="28.3687943" height="119.148936"></rect>
            <rect id="Rectangle-Copy-3" fill-opacity="0.8" fill="#FFFFFF" x="68.929078" y="94.0921986" width="28.3687943" height="139.007092"></rect>
            <rect id="Rectangle-Copy-8" fill-opacity="0.8" fill="#2A6720" x="68.929078" y="238.099291" width="28.3687943" height="87.9432624"></rect>
            <rect id="Rectangle-Copy-9" fill-opacity="0.9" fill="#2A6720" x="34.8865248" y="238.099291" width="28.3687943" height="73.7588652"></rect>
            <rect id="Rectangle-Copy-10" fill="#2A6720" x="0.843971631" y="238.099291" width="28.3687943" height="98.9007092"></rect>
        </g>
    </g>
</svg>